<mxfile host="app.diagrams.net" agent="Mozilla/5.0 (Windows NT 10.0; Win64; x64) AppleWebKit/537.36 (KHTML, like Gecko) Chrome/137.0.0.0 Safari/537.36" version="27.1.4">
  <diagram id="C5RBs43oDa-KdzZeNtuy" name="Page-1">
    <mxGraphModel dx="1426" dy="777" grid="1" gridSize="10" guides="1" tooltips="1" connect="1" arrows="1" fold="1" page="1" pageScale="1" pageWidth="827" pageHeight="1169" math="0" shadow="0">
      <root>
        <mxCell id="WIyWlLk6GJQsqaUBKTNV-0" />
        <mxCell id="WIyWlLk6GJQsqaUBKTNV-1" parent="WIyWlLk6GJQsqaUBKTNV-0" />
        <mxCell id="WbyQ5-Jwkn0pDImA_7j6-2" value="" style="edgeStyle=orthogonalEdgeStyle;rounded=0;orthogonalLoop=1;jettySize=auto;html=1;" edge="1" parent="WIyWlLk6GJQsqaUBKTNV-1" source="WbyQ5-Jwkn0pDImA_7j6-0" target="WbyQ5-Jwkn0pDImA_7j6-1">
          <mxGeometry relative="1" as="geometry" />
        </mxCell>
        <mxCell id="WbyQ5-Jwkn0pDImA_7j6-0" value="Start" style="rounded=1;whiteSpace=wrap;html=1;glass=0;shadow=1;fillColor=#dae8fc;strokeColor=#6c8ebf;" vertex="1" parent="WIyWlLk6GJQsqaUBKTNV-1">
          <mxGeometry x="30" y="30" width="120" height="60" as="geometry" />
        </mxCell>
        <mxCell id="WbyQ5-Jwkn0pDImA_7j6-4" value="" style="edgeStyle=orthogonalEdgeStyle;rounded=0;orthogonalLoop=1;jettySize=auto;html=1;" edge="1" parent="WIyWlLk6GJQsqaUBKTNV-1" source="WbyQ5-Jwkn0pDImA_7j6-5" target="WbyQ5-Jwkn0pDImA_7j6-3">
          <mxGeometry relative="1" as="geometry" />
        </mxCell>
        <mxCell id="WbyQ5-Jwkn0pDImA_7j6-6" value="" style="edgeStyle=orthogonalEdgeStyle;rounded=0;orthogonalLoop=1;jettySize=auto;html=1;" edge="1" parent="WIyWlLk6GJQsqaUBKTNV-1" source="WbyQ5-Jwkn0pDImA_7j6-1" target="WbyQ5-Jwkn0pDImA_7j6-5">
          <mxGeometry relative="1" as="geometry" />
        </mxCell>
        <mxCell id="WbyQ5-Jwkn0pDImA_7j6-1" value="GoTo envs" style="whiteSpace=wrap;html=1;rounded=0;" vertex="1" parent="WIyWlLk6GJQsqaUBKTNV-1">
          <mxGeometry x="30" y="120" width="120" height="60" as="geometry" />
        </mxCell>
        <mxCell id="WbyQ5-Jwkn0pDImA_7j6-9" value="" style="edgeStyle=orthogonalEdgeStyle;rounded=0;orthogonalLoop=1;jettySize=auto;html=1;" edge="1" parent="WIyWlLk6GJQsqaUBKTNV-1" source="WbyQ5-Jwkn0pDImA_7j6-3" target="WbyQ5-Jwkn0pDImA_7j6-8">
          <mxGeometry relative="1" as="geometry" />
        </mxCell>
        <mxCell id="WbyQ5-Jwkn0pDImA_7j6-3" value="Search for BAN" style="whiteSpace=wrap;html=1;rounded=0;" vertex="1" parent="WIyWlLk6GJQsqaUBKTNV-1">
          <mxGeometry x="30" y="280" width="120" height="60" as="geometry" />
        </mxCell>
        <mxCell id="WbyQ5-Jwkn0pDImA_7j6-7" value="" style="edgeStyle=orthogonalEdgeStyle;rounded=0;orthogonalLoop=1;jettySize=auto;html=1;" edge="1" parent="WIyWlLk6GJQsqaUBKTNV-1" source="WbyQ5-Jwkn0pDImA_7j6-1" target="WbyQ5-Jwkn0pDImA_7j6-5">
          <mxGeometry relative="1" as="geometry">
            <mxPoint x="90" y="230" as="sourcePoint" />
            <mxPoint x="91" y="430" as="targetPoint" />
          </mxGeometry>
        </mxCell>
        <mxCell id="WbyQ5-Jwkn0pDImA_7j6-5" value="Internal login" style="whiteSpace=wrap;html=1;rounded=0;" vertex="1" parent="WIyWlLk6GJQsqaUBKTNV-1">
          <mxGeometry x="30" y="200" width="120" height="60" as="geometry" />
        </mxCell>
        <mxCell id="WbyQ5-Jwkn0pDImA_7j6-11" value="" style="edgeStyle=orthogonalEdgeStyle;rounded=0;orthogonalLoop=1;jettySize=auto;html=1;" edge="1" parent="WIyWlLk6GJQsqaUBKTNV-1" source="WbyQ5-Jwkn0pDImA_7j6-8" target="WbyQ5-Jwkn0pDImA_7j6-10">
          <mxGeometry relative="1" as="geometry" />
        </mxCell>
        <mxCell id="WbyQ5-Jwkn0pDImA_7j6-8" value="View Organization" style="whiteSpace=wrap;html=1;rounded=0;" vertex="1" parent="WIyWlLk6GJQsqaUBKTNV-1">
          <mxGeometry x="30" y="360" width="120" height="60" as="geometry" />
        </mxCell>
        <mxCell id="WbyQ5-Jwkn0pDImA_7j6-13" value="" style="edgeStyle=orthogonalEdgeStyle;rounded=0;orthogonalLoop=1;jettySize=auto;html=1;" edge="1" parent="WIyWlLk6GJQsqaUBKTNV-1" source="WbyQ5-Jwkn0pDImA_7j6-10" target="WbyQ5-Jwkn0pDImA_7j6-12">
          <mxGeometry relative="1" as="geometry" />
        </mxCell>
        <mxCell id="WbyQ5-Jwkn0pDImA_7j6-10" value="Open Breadcrumb&amp;nbsp;" style="whiteSpace=wrap;html=1;rounded=0;" vertex="1" parent="WIyWlLk6GJQsqaUBKTNV-1">
          <mxGeometry x="30" y="440" width="120" height="60" as="geometry" />
        </mxCell>
        <mxCell id="WbyQ5-Jwkn0pDImA_7j6-15" value="" style="edgeStyle=orthogonalEdgeStyle;rounded=0;orthogonalLoop=1;jettySize=auto;html=1;" edge="1" parent="WIyWlLk6GJQsqaUBKTNV-1" source="WbyQ5-Jwkn0pDImA_7j6-12" target="WbyQ5-Jwkn0pDImA_7j6-14">
          <mxGeometry relative="1" as="geometry" />
        </mxCell>
        <mxCell id="WbyQ5-Jwkn0pDImA_7j6-12" value="goto wireless connectivity" style="whiteSpace=wrap;html=1;rounded=0;" vertex="1" parent="WIyWlLk6GJQsqaUBKTNV-1">
          <mxGeometry x="30" y="524.5" width="120" height="60" as="geometry" />
        </mxCell>
        <mxCell id="WbyQ5-Jwkn0pDImA_7j6-14" value="Click on Lines" style="whiteSpace=wrap;html=1;rounded=0;" vertex="1" parent="WIyWlLk6GJQsqaUBKTNV-1">
          <mxGeometry x="30" y="610" width="120" height="60" as="geometry" />
        </mxCell>
      </root>
    </mxGraphModel>
  </diagram>
</mxfile>
